<svg xmlns="http://www.w3.org/2000/svg" width="900.946" height="130.035" viewBox="0 0 900.946 130.035"><path fill="#D22321" d="M156.22 12.497h26.12v63.485h28.988l-4.81 24.5H156.22V12.496m146.967 0l-4.81 24.15h18.554v63.834h25.84V36.65h14.336l4.81-24.15h-58.73m62.53 0l-4.81 24.15h18.552v63.833h25.84V36.65h14.337l4.814-24.15h-58.733m51.954 44.528c0 24.913 20.195 45.106 45.106 45.106 24.914 0 45.107-20.193 45.107-45.106 0-24.91-20.193-45.104-45.107-45.104-24.91 0-45.105 20.194-45.105 45.104zm25.56 0c0-10.795 8.752-19.545 19.546-19.545 10.795 0 19.546 8.75 19.546 19.546s-8.75 19.547-19.546 19.547c-10.794 0-19.545-8.75-19.545-19.547m-233.647 0c0 24.913 20.195 45.106 45.106 45.106 24.91 0 45.104-20.193 45.104-45.106 0-24.91-20.195-45.104-45.105-45.104-24.913 0-45.107 20.194-45.107 45.104zm25.56 0c0-10.795 8.75-19.545 19.546-19.545 10.795 0 19.543 8.75 19.543 19.546s-8.748 19.547-19.544 19.547c-10.796 0-19.546-8.75-19.546-19.547m300.942-30.4c0 8.222-6.602 14.705-14.626 14.705s-14.625-6.482-14.625-14.703c0-8.183 6.6-14.705 14.625-14.705s14.626 6.522 14.626 14.705zm-3.32 0c0-6.56-5.06-11.78-11.306-11.78-6.244 0-11.266 5.22-11.266 11.78 0 6.562 5.02 11.86 11.266 11.86 6.245 0 11.306-5.298 11.306-11.86zm-16.445-8.34h6.13c2.922 0 4.86 1.937 4.86 4.82 0 2.492-1.66 4.508-3.676 4.547.315.277.474.436.672.713.95 1.185 3.952 6.402 3.952 6.402h-3.913c-.632-1.107-.91-1.542-1.542-2.727-1.62-2.964-2.134-3.755-2.728-4.03-.158-.04-.315-.12-.514-.12v6.878h-3.24V18.286zm3.242 2.65V25.4h1.107c1.423 0 2.054-.158 2.488-.554.396-.396.633-.99.633-1.66 0-1.028-.393-1.74-1.185-2.016-.356-.158-1.068-.237-1.86-.237h-1.183M81.896 59.083c17.608 1.217 34.76-.8 44.318-7.074 5.64-3.703 5.89-10.122 4.215-18.508-2.202-11.026-10.93-13.185-18.835-8.656-12.238 7.008-22.56 20.2-29.7 34.237m-5.386-.472c9.377-17.687 13.464-36.787 12.847-50.727C89.054 1.02 85.174-.524 79.05.14 59.92 2.215 36.585 14.217 27.7 28.2c-2.458 3.87-3.954 9.278.16 13.36 8.805 8.734 28.55 14.925 48.65 17.05m-2.393 4.273c-19.1-2.668-40.114-3.263-52.175-1.487C2.766 64.22.048 74.394 0 86.842c-.042 11.01 4.432 21.033 18.733 18.037 25.724-5.393 43.907-22.476 55.384-41.997m5.546.844c-5.87 12.932-8.97 26.08-8.34 35.393.25 3.683 1.523 6.848 7.02 6.25 10.583-1.148 28.668-9.01 35.72-18.965 2.843-4.013 3.182-7.496-.56-11.146-5.243-5.11-18.536-9.01-33.84-11.533M69.09 81.074l-4.41 2.868c-4.316 9.533-18.77 39.047-32.618 39.968l5.84 6.125c9.807-3.377 22.636-28.34 31.19-48.96m538.757-8.8c0 17.144-13.795 30.293-32.742 30.293-21.915 0-34.935-12.892-34.935-35.19 0-26.555 16.886-51.434 55.04-61.36l4.642 16.37c-17.143 5.674-27.198 11.732-31.323 24.105 1.935-1.416 5.158-2.576 11.86-2.576 17.27 0 27.457 11.6 27.457 28.36zm-22.69.258c0-5.8-2.707-10.57-8.765-10.57-2.964 0-5.8.516-10.7 2.58-.385 2.576-.385 5.542-.385 8.507 0 3.996 1.03 12.503 9.797 12.503 5.928 0 10.053-5.03 10.053-13.02m40.242-24.9l-3.56-5.113c6.025-4.02 12.508-6.116 19.082-6.116 6.3 0 10.683 2.465 12.6 7.12 1.005 2.466 1.097 5.937 1.005 10.046l-.366 14.974c-.183 7.396.274 9.312 3.653 11.14l-3.653 5.112c-3.104-1.004-5.388-3.47-6.208-6.665-4.384 4.384-7.943 6.12-13.148 6.12-11.23 0-14.61-6.85-14.61-12.968 0-10.317 8.858-16.343 24.105-16.343 1.918 0 3.196.09 3.196.09v-3.196c0-4.018-.184-5.66-1.463-7.12-1.46-1.646-3.286-2.468-6.116-2.468-5.112 0-11.596 2.74-14.518 5.387zm21.64 24.197l.274-11.87c-1.187-.09-2.282-.184-3.562-.184-11.505 0-15.613 3.927-15.613 10.866 0 5.387 2.65 8.31 7.853 8.31 4.658 0 8.95-2.83 11.048-7.122m22.444-.457c0 2.647.366 5.022 1.187 6.757 1.92 4.018 6.212 6.482 11.964 6.482 6.21 0 10.955-2.282 14.426-6.94.64 3.014 1.918 4.84 4.93 7.306l4.566-4.84c-2.282-2.098-3.104-4.382-3.104-10.135V36.86l-7.03 1.187v32.23c-2.467 4.932-7.123 8.218-11.598 8.218-2.007 0-4.11-.55-5.568-1.553-2.1-1.46-2.738-3.378-2.738-7.67V36.585l-7.032 1.37v33.418m63.806-35.52c-9.496 0-16.16 5.755-16.16 13.972 0 6.3 4.018 10.956 11.505 12.51l5.66 1.186c5.204 1.098 7.487 3.38 7.487 7.488 0 4.84-3.652 7.852-9.222 7.852-5.022 0-9.77-1.46-14.427-4.29l-2.74 5.295c4.657 2.83 10.958 4.565 16.71 4.565 10.227 0 17.166-6.026 17.166-14.883 0-6.757-3.925-10.957-12.143-12.692L731.1 55.58c-4.838-1.006-6.574-3.107-6.574-6.576 0-4.473 3.378-7.487 8.584-7.487 4.018 0 7.395 1.37 11.414 3.286l2.646-5.295c-3.833-2.194-9.13-3.654-13.878-3.654m96.678 42.91V59.43h-7.736c.13-1.16.645-5.803.645-12.377V30.036l-20.108 2.968-1.16 8.118c-1.16 8.12-1.29 12.764-1.29 16.76 0 .644 0 1.16.13 1.547-.388-.13-1.03-.13-1.676-.13h-9.668c-1.29 0-2.578 0-2.966.13 2.45-2.452 4.512-7.35 5.802-10.57l15.596-38.286h-22.3l-22.687 53.883v14.308h34.03c1.29 0 3.353-.13 3.995-.516-.257 1.16-.257 2.32-.257 3.093v22.042l22.56-1.546V83.66c0-2.318-.13-4.64-.26-5.154.39.128 1.42.258 2.708.258h4.642m70.976-35.062c0 33.13-16.5 48.34-47.697 61.23l-11.602-13.665c19.078-6.058 28.878-17.918 30.808-23.2-2.57 1.287-5.928 2.06-9.02 2.06-15.6 0-28.232-9.408-28.232-29.904 0-18.046 13.406-31.064 34.163-31.064 21.14-.003 31.58 13.4 31.58 34.542zm-24.49-2.838c0-9.15-2.84-13.92-8.38-13.92-6.06 0-9.153 4.64-9.153 12.633 0 7.22 4.512 12.504 11.094 12.504 2.44 0 4.38-.645 5.67-1.546.77-3.094.77-6.317.77-9.67"/></svg>